<?xml version="1.0" encoding="UTF-8"?>
<!DOCTYPE svg PUBLIC "-//W3C//DTD SVG 1.1//EN" "http://www.w3.org/Graphics/SVG/1.1/DTD/svg11.dtd">
<!-- Creator: CorelDRAW 2017 -->
<svg xmlns="http://www.w3.org/2000/svg" xml:space="preserve" width="5in" height="5in" version="1.1" style="shape-rendering:geometricPrecision; text-rendering:geometricPrecision; image-rendering:optimizeQuality; fill-rule:evenodd; clip-rule:evenodd"
viewBox="0 0 5000 5000"
 xmlns:xlink="http://www.w3.org/1999/xlink">
 <defs>
  <style type="text/css">
   <![CDATA[
    .fil0 {fill:#4690E6}
   ]]>
  </style>
 </defs>
 <g id="Layer_x0020_2">
  <metadata id="CorelCorpID_0Corel-Layer"/>
  <path class="fil0" d="M3175.56 1585.87c-0.57,-58.41 -16.36,-96.44 -10.24,-172.67 9.43,-91.24 22.35,-127.96 81.95,-198.36 -45.37,-9.1 -215.63,-31.11 -151.76,-111.78 52.48,-66.28 193.59,33.59 -68.58,-145.17 -289.63,-197.48 -253.05,-252.75 69.03,-144.97 159.28,53.3 7.98,-57.64 -37.82,-97.35 -30.8,-26.7 -395.95,-342.3 -191.37,-332.39 184.31,8.92 545.77,370.05 810.7,380.06 297.49,11.24 679,110.72 757.72,443.67 26.54,112.23 -77.96,21.64 -180.06,152.3 -92.94,118.93 -34.89,284.87 32.05,400.61 -64.26,96.74 -120.6,37.28 -81.63,215.63 43.76,200.19 32.1,311.69 -49.82,504.44 -153.22,360.49 -477.94,674.19 -799.5,888.5 -114.3,76.17 -115.12,196.84 -72.23,316.82 35.77,100.07 111.35,81.2 208.65,81.05 45.72,-0.07 147.78,0.79 146.95,70.73 -1.38,115.19 -730.69,115.52 -783.88,49.42 -46.28,-57.5 83.63,-90.45 113.96,-96.34 121.22,-23.53 145.65,-64.5 142.86,-192.67 -2.43,-111.81 -22.9,-69.41 -102.61,-12.81 -343.17,243.67 -464.87,248.74 -859.87,346.37 -396.59,98.02 -981.44,691.61 -1270.04,693.78 -231.34,1.73 -328.95,-246.59 -62.04,-392.61 48.93,-26.77 975.14,-310.89 519.09,-197.92 -184.94,45.81 -892.89,272.28 -968.23,2.93 -61.78,-220.86 548.05,-268.12 686.3,-272.69 484.29,-16.02 799.53,-33.39 1237.59,-304.75 316.78,-196.24 639.78,-804.03 479.77,-644.02 -118.37,118.37 -92.91,89.12 -117.09,119.65 -322.76,407.71 -668.02,713.83 -1242.62,734.55 -265.91,9.59 -643.76,-67.24 -890.56,-173.69 -214.67,-92.59 -13,-112.37 91.59,-127.98 523.57,-78.13 505.16,-48.5 882.05,-424.06 366.16,-364.87 672.4,-686.89 1168.6,-872.66 215.52,-80.69 499.26,-223.76 511.09,-485.63zm718.97 -388.39c44.41,0 80.41,38.59 80.41,86.21 0,47.61 -36,86.22 -80.41,86.22 -44.41,0 -80.41,-38.6 -80.41,-86.22 0,-47.62 36,-86.21 80.41,-86.21zm697.61 567.11c-72.26,158.8 -6.88,-46.38 -183.84,-119 -72.01,-29.56 -190.03,-39.37 -160.75,-165.73 26.62,-114.88 211.06,-244.31 307.36,-147.26 123.93,124.91 100.81,283.83 37.23,431.99zm-309.88 -155.67c0,0 49.66,115.25 65.54,109.15 80.87,-31.06 140.1,7.55 134.27,0.37 -20.06,-24.69 -154.84,-68.11 -199.81,-109.51z"/>
 </g>
</svg>
